<?xml version="1.0" standalone="no"?>
<!DOCTYPE svg PUBLIC "-//W3C//DTD SVG 20010904//EN"
 "http://www.w3.org/TR/2001/REC-SVG-20010904/DTD/svg10.dtd">
<svg version="1.0" xmlns="http://www.w3.org/2000/svg"
 width="1024.000000pt" height="1024.000000pt" viewBox="0 0 1024.000000 1024.000000"
 preserveAspectRatio="xMidYMid meet">

<g transform="translate(0.000000,1024.000000) scale(0.100000,-0.100000)"
fill="#000000" stroke="none">
<path d="M4870 8949 c-130 -10 -354 -39 -368 -48 -6 -4 -34 -228 -66 -525 -30
-284 -56 -520 -59 -522 -2 -2 -44 -16 -93 -30 -128 -37 -248 -85 -422 -170
-99 -48 -158 -72 -165 -66 -7 5 -191 154 -410 330 l-399 322 -45 -32 c-73 -52
-281 -227 -372 -314 -134 -126 -317 -334 -443 -506 l-28 -36 330 -407 c182
-224 330 -411 330 -415 0 -3 -24 -53 -54 -111 -67 -128 -132 -286 -181 -441
l-38 -117 -41 -6 c-22 -3 -257 -28 -521 -56 -263 -27 -481 -52 -484 -55 -11
-11 -40 -254 -52 -431 -10 -155 -10 -231 0 -385 11 -175 41 -421 52 -432 2 -2
225 -27 494 -55 270 -29 504 -54 521 -57 31 -6 33 -10 69 -122 49 -155 114
-313 182 -444 39 -76 53 -111 46 -120 -5 -7 -155 -192 -332 -411 l-322 -398
63 -82 c222 -294 488 -555 790 -780 l37 -27 401 325 c220 178 405 327 410 330
5 3 78 -28 162 -69 151 -74 305 -135 445 -176 70 -21 72 -22 77 -58 3 -20 29
-255 56 -522 28 -266 53 -486 55 -489 6 -5 84 -18 240 -37 178 -23 592 -23
770 0 156 19 234 32 240 37 2 3 27 223 55 489 27 267 53 502 56 522 5 36 7 37
77 58 150 45 277 95 435 172 89 43 167 76 172 73 5 -3 190 -152 410 -330 l401
-325 37 27 c305 227 572 491 798 790 l54 72 -321 398 c-177 219 -327 404 -332
411 -7 9 7 44 46 120 68 131 133 289 182 444 36 112 38 116 69 122 17 3 252
28 521 57 270 28 492 53 494 55 11 11 41 257 52 432 10 154 10 230 0 385 -12
177 -41 420 -52 431 -3 3 -221 28 -484 55 -264 28 -499 53 -522 56 l-41 6 -21
72 c-40 134 -102 291 -177 445 -45 90 -72 157 -67 165 4 6 153 191 330 411
l324 398 -27 37 c-219 294 -487 566 -767 780 l-95 72 -398 -322 c-220 -177
-404 -326 -411 -331 -7 -6 -67 18 -165 66 -174 85 -294 133 -422 170 -49 14
-91 28 -93 30 -3 2 -29 238 -59 522 -31 293 -60 521 -66 525 -16 10 -239 38
-393 49 -158 11 -321 11 -475 -1z m401 -2129 c217 -21 403 -73 594 -165 769
-371 1144 -1259 874 -2071 -169 -508 -559 -903 -1065 -1077 -430 -149 -895
-119 -1309 83 -195 96 -384 240 -526 404 -535 613 -569 1505 -82 2153 353 470
937 729 1514 673z"/>
</g>
</svg>
